<svg width="20" height="21" viewBox="0 0 20 21" fill="none" xmlns="http://www.w3.org/2000/svg">
<path d="M10 4.03552C9.86667 4.03552 9.75 3.98508 9.65 3.88419C9.55 3.7833 9.5 3.6656 9.5 3.53108C9.5 3.39657 9.55 3.27886 9.65 3.17798C9.75 3.07709 9.86667 3.02664 10 3.02664C10.1333 3.02664 10.25 3.07709 10.35 3.17798C10.45 3.27886 10.5 3.39657 10.5 3.53108C10.5 3.6656 10.45 3.7833 10.35 3.88419C10.25 3.98508 10.1333 4.03552 10 4.03552ZM12 4.03552C11.8667 4.03552 11.75 3.98508 11.65 3.88419C11.55 3.7833 11.5 3.6656 11.5 3.53108C11.5 3.39657 11.55 3.27886 11.65 3.17798C11.75 3.07709 11.8667 3.02664 12 3.02664C12.1333 3.02664 12.25 3.07709 12.35 3.17798C12.45 3.27886 12.5 3.39657 12.5 3.53108C12.5 3.6656 12.45 3.7833 12.35 3.88419C12.25 3.98508 12.1333 4.03552 12 4.03552ZM8 4.03552C7.86667 4.03552 7.75 3.98508 7.65 3.88419C7.55 3.7833 7.5 3.6656 7.5 3.53108C7.5 3.39657 7.55 3.27886 7.65 3.17798C7.75 3.07709 7.86667 3.02664 8 3.02664C8.13333 3.02664 8.25 3.07709 8.35 3.17798C8.45 3.27886 8.5 3.39657 8.5 3.53108C8.5 3.6656 8.45 3.7833 8.35 3.88419C8.25 3.98508 8.13333 4.03552 8 4.03552ZM15 5.0444C14.8667 5.0444 14.75 4.99396 14.65 4.89307C14.55 4.79218 14.5 4.67448 14.5 4.53996C14.5 4.40545 14.55 4.28774 14.65 4.18686C14.75 4.08597 14.8667 4.03552 15 4.03552C15.1333 4.03552 15.25 4.08597 15.35 4.18686C15.45 4.28774 15.5 4.40545 15.5 4.53996C15.5 4.67448 15.45 4.79218 15.35 4.89307C15.25 4.99396 15.1333 5.0444 15 5.0444ZM7 5.0444C6.86667 5.0444 6.75 4.99396 6.65 4.89307C6.55 4.79218 6.5 4.67448 6.5 4.53996C6.5 4.40545 6.55 4.28774 6.65 4.18686C6.75 4.08597 6.86667 4.03552 7 4.03552C7.13333 4.03552 7.25 4.08597 7.35 4.18686C7.45 4.28774 7.5 4.40545 7.5 4.53996C7.5 4.67448 7.45 4.79218 7.35 4.89307C7.25 4.99396 7.13333 5.0444 7 5.0444ZM5 5.0444C4.86667 5.0444 4.75 4.99396 4.65 4.89307C4.55 4.79218 4.5 4.67448 4.5 4.53996C4.5 4.40545 4.55 4.28774 4.65 4.18686C4.75 4.08597 4.86667 4.03552 5 4.03552C5.13333 4.03552 5.25 4.08597 5.35 4.18686C5.45 4.28774 5.5 4.40545 5.5 4.53996C5.5 4.67448 5.45 4.79218 5.35 4.89307C5.25 4.99396 5.13333 5.0444 5 5.0444ZM9 5.0444C8.86667 5.0444 8.75 4.99396 8.65 4.89307C8.55 4.79218 8.5 4.67448 8.5 4.53996C8.5 4.40545 8.55 4.28774 8.65 4.18686C8.75 4.08597 8.86667 4.03552 9 4.03552C9.13333 4.03552 9.25 4.08597 9.35 4.18686C9.45 4.28774 9.5 4.40545 9.5 4.53996C9.5 4.67448 9.45 4.79218 9.35 4.89307C9.25 4.99396 9.13333 5.0444 9 5.0444ZM11 5.0444C10.8667 5.0444 10.75 4.99396 10.65 4.89307C10.55 4.79218 10.5 4.67448 10.5 4.53996C10.5 4.40545 10.55 4.28774 10.65 4.18686C10.75 4.08597 10.8667 4.03552 11 4.03552C11.1333 4.03552 11.25 4.08597 11.35 4.18686C11.45 4.28774 11.5 4.40545 11.5 4.53996C11.5 4.67448 11.45 4.79218 11.35 4.89307C11.25 4.99396 11.1333 5.0444 11 5.0444ZM13 5.0444C12.8667 5.0444 12.75 4.99396 12.65 4.89307C12.55 4.79218 12.5 4.67448 12.5 4.53996C12.5 4.40545 12.55 4.28774 12.65 4.18686C12.75 4.08597 12.8667 4.03552 13 4.03552C13.1333 4.03552 13.25 4.08597 13.35 4.18686C13.45 4.28774 13.5 4.40545 13.5 4.53996C13.5 4.67448 13.45 4.79218 13.35 4.89307C13.25 4.99396 13.1333 5.0444 13 5.0444ZM10 6.05329C9.86667 6.05329 9.75 6.00284 9.65 5.90195C9.55 5.80107 9.5 5.68336 9.5 5.54885C9.5 5.41433 9.55 5.29663 9.65 5.19574C9.75 5.09485 9.86667 5.0444 10 5.0444C10.1333 5.0444 10.25 5.09485 10.35 5.19574C10.45 5.29663 10.5 5.41433 10.5 5.54885C10.5 5.68336 10.45 5.80107 10.35 5.90195C10.25 6.00284 10.1333 6.05329 10 6.05329ZM12 6.05329C11.8667 6.05329 11.75 6.00284 11.65 5.90195C11.55 5.80107 11.5 5.68336 11.5 5.54885C11.5 5.41433 11.55 5.29663 11.65 5.19574C11.75 5.09485 11.8667 5.0444 12 5.0444C12.1333 5.0444 12.25 5.09485 12.35 5.19574C12.45 5.29663 12.5 5.41433 12.5 5.54885C12.5 5.68336 12.45 5.80107 12.35 5.90195C12.25 6.00284 12.1333 6.05329 12 6.05329ZM14 6.05329C13.8667 6.05329 13.75 6.00284 13.65 5.90195C13.55 5.80107 13.5 5.68336 13.5 5.54885C13.5 5.41433 13.55 5.29663 13.65 5.19574C13.75 5.09485 13.8667 5.0444 14 5.0444C14.1333 5.0444 14.25 5.09485 14.35 5.19574C14.45 5.29663 14.5 5.41433 14.5 5.54885C14.5 5.68336 14.45 5.80107 14.35 5.90195C14.25 6.00284 14.1333 6.05329 14 6.05329ZM8 6.05329C7.86667 6.05329 7.75 6.00284 7.65 5.90195C7.55 5.80107 7.5 5.68336 7.5 5.54885C7.5 5.41433 7.55 5.29663 7.65 5.19574C7.75 5.09485 7.86667 5.0444 8 5.0444C8.13333 5.0444 8.25 5.09485 8.35 5.19574C8.45 5.29663 8.5 5.41433 8.5 5.54885C8.5 5.68336 8.45 5.80107 8.35 5.90195C8.25 6.00284 8.13333 6.05329 8 6.05329ZM6 6.05329C5.86667 6.05329 5.75 6.00284 5.65 5.90195C5.55 5.80107 5.5 5.68336 5.5 5.54885C5.5 5.41433 5.55 5.29663 5.65 5.19574C5.75 5.09485 5.86667 5.0444 6 5.0444C6.13333 5.0444 6.25 5.09485 6.35 5.19574C6.45 5.29663 6.5 5.41433 6.5 5.54885C6.5 5.68336 6.45 5.80107 6.35 5.90195C6.25 6.00284 6.13333 6.05329 6 6.05329ZM7 7.06217C6.86667 7.06217 6.75 7.01172 6.65 6.91084C6.55 6.80995 6.5 6.69224 6.5 6.55773C6.5 6.42321 6.55 6.30551 6.65 6.20462C6.75 6.10373 6.86667 6.05329 7 6.05329C7.13333 6.05329 7.25 6.10373 7.35 6.20462C7.45 6.30551 7.5 6.42321 7.5 6.55773C7.5 6.69224 7.45 6.80995 7.35 6.91084C7.25 7.01172 7.13333 7.06217 7 7.06217ZM5 7.06217C4.86667 7.06217 4.75 7.01172 4.65 6.91084C4.55 6.80995 4.5 6.69224 4.5 6.55773C4.5 6.42321 4.55 6.30551 4.65 6.20462C4.75 6.10373 4.86667 6.05329 5 6.05329C5.13333 6.05329 5.25 6.10373 5.35 6.20462C5.45 6.30551 5.5 6.42321 5.5 6.55773C5.5 6.69224 5.45 6.80995 5.35 6.91084C5.25 7.01172 5.13333 7.06217 5 7.06217ZM9 7.06217C8.86667 7.06217 8.75 7.01172 8.65 6.91084C8.55 6.80995 8.5 6.69224 8.5 6.55773C8.5 6.42321 8.55 6.30551 8.65 6.20462C8.75 6.10373 8.86667 6.05329 9 6.05329C9.13333 6.05329 9.25 6.10373 9.35 6.20462C9.45 6.30551 9.5 6.42321 9.5 6.55773C9.5 6.69224 9.45 6.80995 9.35 6.91084C9.25 7.01172 9.13333 7.06217 9 7.06217ZM11 7.06217C10.8667 7.06217 10.75 7.01172 10.65 6.91084C10.55 6.80995 10.5 6.69224 10.5 6.55773C10.5 6.42321 10.55 6.30551 10.65 6.20462C10.75 6.10373 10.8667 6.05329 11 6.05329C11.1333 6.05329 11.25 6.10373 11.35 6.20462C11.45 6.30551 11.5 6.42321 11.5 6.55773C11.5 6.69224 11.45 6.80995 11.35 6.91084C11.25 7.01172 11.1333 7.06217 11 7.06217ZM13 7.06217C12.8667 7.06217 12.75 7.01172 12.65 6.91084C12.55 6.80995 12.5 6.69224 12.5 6.55773C12.5 6.42321 12.55 6.30551 12.65 6.20462C12.75 6.10373 12.8667 6.05329 13 6.05329C13.1333 6.05329 13.25 6.10373 13.35 6.20462C13.45 6.30551 13.5 6.42321 13.5 6.55773C13.5 6.69224 13.45 6.80995 13.35 6.91084C13.25 7.01172 13.1333 7.06217 13 7.06217ZM15 7.06217C14.8667 7.06217 14.75 7.01172 14.65 6.91084C14.55 6.80995 14.5 6.69224 14.5 6.55773C14.5 6.42321 14.55 6.30551 14.65 6.20462C14.75 6.10373 14.8667 6.05329 15 6.05329C15.1333 6.05329 15.25 6.10373 15.35 6.20462C15.45 6.30551 15.5 6.42321 15.5 6.55773C15.5 6.69224 15.45 6.80995 15.35 6.91084C15.25 7.01172 15.1333 7.06217 15 7.06217ZM3 7.06217C2.86667 7.06217 2.75 7.01172 2.65 6.91084C2.55 6.80995 2.5 6.69224 2.5 6.55773C2.5 6.42321 2.55 6.30551 2.65 6.20462C2.75 6.10373 2.86667 6.05329 3 6.05329C3.13333 6.05329 3.25 6.10373 3.35 6.20462C3.45 6.30551 3.5 6.42321 3.5 6.55773C3.5 6.69224 3.45 6.80995 3.35 6.91084C3.25 7.01172 3.13333 7.06217 3 7.06217ZM4 6.05329C3.86667 6.05329 3.75 6.00284 3.65 5.90195C3.55 5.80107 3.5 5.68336 3.5 5.54885C3.5 5.41433 3.55 5.29663 3.65 5.19574C3.75 5.09485 3.86667 5.0444 4 5.0444C4.13333 5.0444 4.25 5.09485 4.35 5.19574C4.45 5.29663 4.5 5.41433 4.5 5.54885C4.5 5.68336 4.45 5.80107 4.35 5.90195C4.25 6.00284 4.13333 6.05329 4 6.05329ZM6 4.03552C5.86667 4.03552 5.75 3.98508 5.65 3.88419C5.55 3.7833 5.5 3.6656 5.5 3.53108C5.5 3.39657 5.55 3.27886 5.65 3.17798C5.75 3.07709 5.86667 3.02664 6 3.02664C6.13333 3.02664 6.25 3.07709 6.35 3.17798C6.45 3.27886 6.5 3.39657 6.5 3.53108C6.5 3.6656 6.45 3.7833 6.35 3.88419C6.25 3.98508 6.13333 4.03552 6 4.03552ZM7 3.02664C6.86667 3.02664 6.75 2.9762 6.65 2.87531C6.55 2.77442 6.5 2.65672 6.5 2.5222C6.5 2.38769 6.55 2.26998 6.65 2.16909C6.75 2.06821 6.86667 2.01776 7 2.01776C7.13333 2.01776 7.25 2.06821 7.35 2.16909C7.45 2.26998 7.5 2.38769 7.5 2.5222C7.5 2.65672 7.45 2.77442 7.35 2.87531C7.25 2.9762 7.13333 3.02664 7 3.02664ZM9 3.02664C8.86667 3.02664 8.75 2.9762 8.65 2.87531C8.55 2.77442 8.5 2.65672 8.5 2.5222C8.5 2.38769 8.55 2.26998 8.65 2.16909C8.75 2.06821 8.86667 2.01776 9 2.01776C9.13333 2.01776 9.25 2.06821 9.35 2.16909C9.45 2.26998 9.5 2.38769 9.5 2.5222C9.5 2.65672 9.45 2.77442 9.35 2.87531C9.25 2.9762 9.13333 3.02664 9 3.02664ZM11 3.02664C10.8667 3.02664 10.75 2.9762 10.65 2.87531C10.55 2.77442 10.5 2.65672 10.5 2.5222C10.5 2.38769 10.55 2.26998 10.65 2.16909C10.75 2.06821 10.8667 2.01776 11 2.01776C11.1333 2.01776 11.25 2.06821 11.35 2.16909C11.45 2.26998 11.5 2.38769 11.5 2.5222C11.5 2.65672 11.45 2.77442 11.35 2.87531C11.25 2.9762 11.1333 3.02664 11 3.02664ZM13 3.02664C12.8667 3.02664 12.75 2.9762 12.65 2.87531C12.55 2.77442 12.5 2.65672 12.5 2.5222C12.5 2.38769 12.55 2.26998 12.65 2.16909C12.75 2.06821 12.8667 2.01776 13 2.01776C13.1333 2.01776 13.25 2.06821 13.35 2.16909C13.45 2.26998 13.5 2.38769 13.5 2.5222C13.5 2.65672 13.45 2.77442 13.35 2.87531C13.25 2.9762 13.1333 3.02664 13 3.02664ZM14 4.03552C13.8667 4.03552 13.75 3.98508 13.65 3.88419C13.55 3.7833 13.5 3.6656 13.5 3.53108C13.5 3.39657 13.55 3.27886 13.65 3.17798C13.75 3.07709 13.8667 3.02664 14 3.02664C14.1333 3.02664 14.25 3.07709 14.35 3.17798C14.45 3.27886 14.5 3.39657 14.5 3.53108C14.5 3.6656 14.45 3.7833 14.35 3.88419C14.25 3.98508 14.1333 4.03552 14 4.03552ZM16 6.05329C15.8667 6.05329 15.75 6.00284 15.65 5.90195C15.55 5.80107 15.5 5.68336 15.5 5.54885C15.5 5.41433 15.55 5.29663 15.65 5.19574C15.75 5.09485 15.8667 5.0444 16 5.0444C16.1333 5.0444 16.25 5.09485 16.35 5.19574C16.45 5.29663 16.5 5.41433 16.5 5.54885C16.5 5.68336 16.45 5.80107 16.35 5.90195C16.25 6.00284 16.1333 6.05329 16 6.05329ZM17 7.06217C16.8667 7.06217 16.75 7.01172 16.65 6.91084C16.55 6.80995 16.5 6.69224 16.5 6.55773C16.5 6.42321 16.55 6.30551 16.65 6.20462C16.75 6.10373 16.8667 6.05329 17 6.05329C17.1333 6.05329 17.25 6.10373 17.35 6.20462C17.45 6.30551 17.5 6.42321 17.5 6.55773C17.5 6.69224 17.45 6.80995 17.35 6.91084C17.25 7.01172 17.1333 7.06217 17 7.06217ZM7 12.3588C6.65 12.3588 6.35417 12.2369 6.1125 11.9931C5.87083 11.7493 5.75 11.4508 5.75 11.0977C5.75 10.7446 5.87083 10.4461 6.1125 10.2023C6.35417 9.9585 6.65 9.83659 7 9.83659C7.35 9.83659 7.64583 9.9585 7.8875 10.2023C8.12917 10.4461 8.25 10.7446 8.25 11.0977C8.25 11.4508 8.12917 11.7493 7.8875 11.9931C7.64583 12.2369 7.35 12.3588 7 12.3588ZM13 12.3588C12.65 12.3588 12.3542 12.2369 12.1125 11.9931C11.8708 11.7493 11.75 11.4508 11.75 11.0977C11.75 10.7446 11.8708 10.4461 12.1125 10.2023C12.3542 9.9585 12.65 9.83659 13 9.83659C13.35 9.83659 13.6458 9.9585 13.8875 10.2023C14.1292 10.4461 14.25 10.7446 14.25 11.0977C14.25 11.4508 14.1292 11.7493 13.8875 11.9931C13.6458 12.2369 13.35 12.3588 13 12.3588ZM10 20.1776C8.63333 20.1776 7.34167 19.9128 6.125 19.3831C4.90833 18.8535 3.84583 18.1304 2.9375 17.214C2.02917 16.2976 1.3125 15.2257 0.7875 13.9982C0.2625 12.7708 0 11.4676 0 10.0888C0 8.69319 0.2625 7.38165 0.7875 6.15417C1.3125 4.9267 2.02917 3.85897 2.9375 2.95098C3.84583 2.04298 4.90833 1.32416 6.125 0.794494C7.34167 0.264831 8.63333 0 10 0C11.3833 0 12.6833 0.264831 13.9 0.794494C15.1167 1.32416 16.175 2.04298 17.075 2.95098C17.975 3.85897 18.6875 4.9267 19.2125 6.15417C19.7375 7.38165 20 8.69319 20 10.0888C20 11.4676 19.7375 12.7708 19.2125 13.9982C18.6875 15.2257 17.975 16.2976 17.075 17.214C16.175 18.1304 15.1167 18.8535 13.9 19.3831C12.6833 19.9128 11.3833 20.1776 10 20.1776ZM10 18.1599C12.2333 18.1599 14.125 17.3738 15.675 15.8016C17.225 14.2294 18 12.3252 18 10.0888C18 7.83564 17.225 5.92718 15.675 4.36341C14.125 2.79964 12.2333 2.01776 10 2.01776C7.78333 2.01776 5.89583 2.79964 4.3375 4.36341C2.77917 5.92718 2 7.83564 2 10.0888C2 12.3252 2.77917 14.2294 4.3375 15.8016C5.89583 17.3738 7.78333 18.1599 10 18.1599Z" fill="#A5A5A5"/>
</svg>
